<svg id="Layer_1" data-name="Layer 1" xmlns="http://www.w3.org/2000/svg" viewBox="0 0 30 30"><defs><style>.icon-bg { fill: #ddd; } .icon-fill { fill: #fff; }</style></defs><title>Email</title><circle class="icon-bg" cx="15" cy="15" r="15"/><path class="icon-fill" d="M15 4.792A10.208 10.208 0 1 0 25.208 15 10.225 10.225 0 0 0 15 4.792zM9.917 9.917h10.208a1.283 1.283 0 0 1 .542.125L15 16.582 9.375 10a.8.8 0 0 1 .542-.083zm-1.292 8.916v-7.75l3.75 4.375-3.708 3.71a.917.917 0 0 1-.042-.334zm11.458 1.25H9.917a.917.917 0 0 1-.333-.042l3.625-3.624L15 18.5l1.792-2.083 3.625 3.625a.812.812 0 0 1-.333.042zm1.292-1.25a.917.917 0 0 1-.042.333l-3.708-3.708 3.75-4.375v7.75z"/></svg>
