<svg id="Layer_1" data-name="Layer 1" xmlns="http://www.w3.org/2000/svg" viewBox="0 0 30 30"><defs><style>.icon-bg { fill: #ddd; } .icon-fill { fill: #fff; }</style></defs><title>Facebook</title><circle class="icon-bg" cx="15" cy="15" r="15"/><path class="icon-fill" d="M20.385 6.865H9.582a2.73 2.73 0 0 0-2.717 2.717v10.836a2.73 2.73 0 0 0 2.717 2.717h10.836a2.73 2.73 0 0 0 2.717-2.717V9.582a2.78 2.78 0 0 0-2.75-2.717zm.3 8.12h-2.653v7.09h-3.05v-7.092h-1.457v-2.32h1.458V11.14c0-2.056.895-3.282 3.28-3.282h2.785v2.518h-2.254c-.663 0-.762.365-.762.994v1.26h3.05l-.4 2.352z"/></svg>
