<svg id="Layer_1" data-name="Layer 1" xmlns="http://www.w3.org/2000/svg" viewBox="0 0 30 30"><defs><style>.icon-bg { fill: #ddd; } .icon-fill { fill: #fff; }</style></defs><title>Instagram</title><circle id="Oval" class="icon-bg" cx="15" cy="15" r="15"/><path id="Shape" class="icon-fill" d="M21.32 6.865H8.658a1.786 1.786 0 0 0-1.793 1.793v12.684a1.786 1.786 0 0 0 1.793 1.793h12.684a1.786 1.786 0 0 0 1.793-1.793V8.658a1.834 1.834 0 0 0-1.815-1.793zm-6.33 5.025a3.11 3.11 0 1 1-3.122 3.12 3.113 3.113 0 0 1 3.12-3.12zm6.22 8.7a.642.642 0 0 1-.642.642H9.41a.642.642 0 0 1-.642-.642v-6.82h1.417a5.557 5.557 0 0 0-.155 1.22 4.98 4.98 0 1 0 9.962 0 4.48 4.48 0 0 0-.155-1.22h1.373v6.82zm.044-9.386a.642.642 0 0 1-.642.642h-1.86a.642.642 0 0 1-.642-.642V9.366a.642.642 0 0 1 .642-.642h1.838a.642.642 0 0 1 .642.642l.022 1.837z"/></svg>
