<svg id="Layer_1" data-name="Layer 1" xmlns="http://www.w3.org/2000/svg" viewBox="0 0 28.472 8.516">
  <defs>
    <style>
      .cls-1 {
        fill: #fff;
      }
    </style>
  </defs>
  <title>38b48071-c156-4ca0-b3a1-a849b7a0077e</title>
  <g>
    <path class="cls-1" d="M11.5,1.163C11.5.611,10.422,0,9.847,0,9.4,0,8.647.66,8.275,1.02A2.581,2.581,0,0,0,6.537,0C6.093,0,5.325.7,4.965,1.031A2.025,2.025,0,0,0,3.43,0,8.062,8.062,0,0,0,.852,1.428,3.481,3.481,0,0,0,0,2.927C0,3.227.792,4.4,1.031,4.4c.192,0,.648-.275.648-.443s-.3-.983-.3-1.26a1.332,1.332,0,0,1,.192-.5A6.889,6.889,0,0,1,3.3.792a.277.277,0,0,1,.216.275c0,.611-1.667,6.021-1.667,6.92,0,.336.935.528,1.151.528.167,0,.192-.1.216-.229A46.87,46.87,0,0,1,4.726,2.314,3.2,3.2,0,0,1,6.236,1.008a.611.611,0,0,1,.552.527c0,.4-1.547,5.625-1.547,6.465,0,.264.755.516,1.079.516.168,0,.192-.1.216-.229A50.86,50.86,0,0,1,8.072,2.2,2.361,2.361,0,0,1,9.523,1.031a.538.538,0,0,1,.492.5c0,.4-1.439,5-1.439,5.841A1.941,1.941,0,0,0,9.4,8.516c.2,0,.959-.54.959-.72,0-.108-.348-.456-.348-.611C10.015,6.536,11.5,1.728,11.5,1.163Z"/>
    <path class="cls-1" d="M28.064,5.469c-.156,0-.264.216-.264.216-.587,1.08-1.247,2-1.595,2a.409.409,0,0,1-.324-.335A24.179,24.179,0,0,1,26.793,3.8a1.1,1.1,0,0,0,.048-.287c0-.217-.792-.636-1.031-.636a.269.269,0,0,0-.252.228c-.156.5-.552,2.051-.852,3.022-.108.384-1,1.439-1.475,1.439a.425.425,0,0,1-.324-.336A29.9,29.9,0,0,1,23.759,3.8a1.1,1.1,0,0,0,.048-.287c0-.217-.792-.636-1.02-.636-.108,0-.192.06-.264.228-.145.457-.5,1.706-.758,2.748-.561,1-1.159,1.833-1.5,1.833a.411.411,0,0,1-.312-.335c0-.636.744-2.975.744-3.538,0-.444-.647-.936-1.007-.936a5.233,5.233,0,0,0-1.8.707s-.563-.707-.768-.707a.421.421,0,0,0-.408.252c-.131.424-.44,1.611-.707,2.7-.764,1.412-1.668,1.837-2.293,1.837-.516,0-1.032-.444-1.032-.731a1.493,1.493,0,0,1,.1-.588,4.788,4.788,0,0,0,1.127.168c.78,0,1.547-1.919,1.547-2.519,0-.516-1.1-1.115-1.715-1.115-1.116,0-2.471,2.566-2.471,3.922,0,.936,1.451,1.715,2.506,1.715a2.614,2.614,0,0,0,1.815-.87,1.835,1.835,0,0,0-.037.246c0,.324.708.624.983.624.18,0,.216-.12.264-.276.072-.348.624-2.771.936-3.562a1.493,1.493,0,0,1,1.1-.756.438.438,0,0,1,.36.408c0,.455-.672,2.374-.672,3.142,0,.54,1.08,1.044,1.619,1.044a1.908,1.908,0,0,0,1.382-.937,1.976,1.976,0,0,0,1.5.937,4.978,4.978,0,0,0,1.595-.852,1.888,1.888,0,0,0,1.463.852c.864,0,1.559-1.092,2.231-2.291a1.272,1.272,0,0,0,.156-.42C28.472,5.661,28.22,5.469,28.064,5.469ZM14.146,3.814a.353.353,0,0,1,.36.3c0,.323-.492,1.69-1.643,1.69C12.971,5.241,13.679,3.814,14.146,3.814Z"/>
  </g>
</svg>
