<svg xmlns="http://www.w3.org/2000/svg" viewBox="0 0 49.2 49.2"><defs><style>.a{fill:#555759;}</style></defs><title>resolution-1color-gray</title><path class="a" d="M24.6 0a24.6 24.6 0 1 0 24.6 24.6A24.6 24.6 0 0 0 24.6 0zM10.8 17.8H7.4v-3.5h3.4zm27.4 24h-7.9l-6-10.3h-3.2v10.3h-6.9V21.2h3.4v-3.4h-3.4V7.5h12.5a11.4 11.4 0 0 1 8.3 3.1 12 12 0 0 1 3.2 8.7 12.6 12.6 0 0 1-3 8.8 10.1 10.1 0 0 1-3.5 2.4z"/><path class="a" d="M26.7 14.3h-5.6v10.3h5.6c4.1 0 4.7-2.8 4.7-5.3a5.3 5.3 0 0 0-1.2-3.8 4.7 4.7 0 0 0-3.5-1.2z"/></svg>