<svg id="Layer_1" data-name="Layer 1" xmlns="http://www.w3.org/2000/svg" viewBox="0 0 30 30"><defs><style>.icon-bg { fill: #ddd; } .icon-fill { fill: #fff; }</style></defs><title>Twitter</title><circle class="icon-bg" cx="15" cy="15" r="15"/><path class="icon-fill" d="M24.26 10.646a7.688 7.688 0 0 1-2.067.57 3.5 3.5 0 0 0 1.568-2 7.082 7.082 0 0 1-2.28.89 3.47 3.47 0 0 0-2.6-1.14 3.59 3.59 0 0 0-3.6 3.6 3.037 3.037 0 0 0 .108.82 9.955 9.955 0 0 1-7.375-3.773 3.475 3.475 0 0 0-.5 1.817 3.6 3.6 0 0 0 1.6 2.993 3.776 3.776 0 0 1-1.64-.463V14a3.6 3.6 0 0 0 2.887 3.527 3.873 3.873 0 0 1-.926.143 4.365 4.365 0 0 1-.677-.07 3.61 3.61 0 0 0 3.35 2.493 7.17 7.17 0 0 1-4.45 1.527 6.865 6.865 0 0 1-.855-.036 9.917 9.917 0 0 0 5.487 1.6 10.15 10.15 0 0 0 10.19-10.26v-.464a6.657 6.657 0 0 0 1.78-1.814z"/></svg>
